<svg xmlns="http://www.w3.org/2000/svg" xmlns:xlink="http://www.w3.org/1999/xlink" width="51" zoomAndPan="magnify" viewBox="0 0 38.25 38.249999" height="51" preserveAspectRatio="xMidYMid meet" version="1.2"><defs><clipPath id="c6b3d4346f"><path d="M 2.324219 6.824219 L 35 6.824219 L 35 31.832031 L 2.324219 31.832031 Z M 2.324219 6.824219 "/></clipPath></defs><g id="2fa9597adc"><g clip-rule="nonzero" clip-path="url(#c6b3d4346f)"><path style=" stroke:none;fill-rule:nonzero;fill:#346bbd;fill-opacity:1;" d="M 34.628906 22.085938 C 34.570312 21.976562 34.425781 21.789062 34.300781 21.671875 C 34.078125 21.457031 33.464844 20.992188 33.351562 20.949219 C 33.316406 20.933594 33.296875 20.855469 33.289062 20.757812 C 33.289062 20.664062 33.277344 20.550781 33.261719 20.503906 C 33.238281 20.445312 33.308594 20.335938 33.503906 20.09375 C 34.097656 19.359375 34.390625 18.90625 34.390625 18.695312 C 34.390625 18.640625 34.34375 18.542969 34.292969 18.480469 C 34.191406 18.363281 34.183594 18.363281 33.730469 18.375 C 33.472656 18.378906 33.011719 18.398438 32.699219 18.425781 C 32.140625 18.46875 32.050781 18.457031 32.050781 18.375 C 32.050781 18.277344 31.738281 17.605469 31.671875 17.574219 C 31.613281 17.539062 31.640625 17.46875 31.847656 17.03125 C 32.132812 16.445312 32.195312 16.214844 32.171875 15.875 C 32.148438 15.585938 32.039062 15.402344 31.824219 15.296875 C 31.664062 15.21875 31.277344 15.207031 31.023438 15.265625 L 30.863281 15.304688 L 30.988281 15.140625 C 31.164062 14.894531 31.300781 14.457031 31.273438 14.222656 C 31.242188 13.964844 31.136719 13.832031 30.835938 13.679688 C 30.605469 13.5625 30.539062 13.550781 30.15625 13.546875 C 29.921875 13.542969 29.640625 13.558594 29.523438 13.582031 C 29.414062 13.601562 29.304688 13.617188 29.28125 13.605469 C 29.261719 13.597656 29.347656 13.449219 29.472656 13.273438 C 30.007812 12.539062 30.167969 12.023438 29.933594 11.746094 C 29.789062 11.578125 29.320312 11.289062 28.746094 11.015625 C 28.484375 10.890625 28.054688 10.6875 27.789062 10.558594 C 27.269531 10.3125 26.890625 10.183594 26.171875 10.011719 C 25.03125 9.738281 23.132812 9.152344 21.914062 8.691406 C 21.460938 8.519531 20.808594 8.273438 20.46875 8.148438 C 20.128906 8.019531 19.476562 7.773438 19.019531 7.597656 C 17.945312 7.1875 17.824219 7.160156 17.699219 7.242188 C 17.613281 7.296875 17.476562 7.289062 16.441406 7.164062 C 15.804688 7.085938 15.082031 6.992188 14.832031 6.960938 C 14.144531 6.855469 14.195312 6.839844 13.773438 7.265625 C 13.550781 7.488281 13.039062 8.121094 12.5 8.832031 C 11.265625 10.464844 10.800781 10.917969 9.609375 11.640625 C 9.25 11.859375 8.074219 12.378906 7.300781 12.664062 C 7.066406 12.746094 6.605469 12.949219 6.28125 13.109375 C 5.695312 13.390625 5.671875 13.410156 5.195312 13.882812 C 4.925781 14.152344 4.609375 14.492188 4.496094 14.644531 C 4.074219 15.203125 3.769531 16.007812 3.640625 16.898438 C 3.5625 17.421875 3.59375 17.734375 3.75 18 L 3.839844 18.148438 L 3.695312 18.300781 C 2.964844 19.074219 2.902344 19.15625 2.835938 19.371094 C 2.753906 19.636719 2.796875 19.816406 3.011719 20.125 L 3.164062 20.347656 L 2.84375 20.996094 C 2.445312 21.789062 2.324219 22.164062 2.324219 22.589844 C 2.324219 22.851562 2.347656 22.957031 2.441406 23.160156 C 2.578125 23.449219 2.960938 23.847656 3.347656 24.097656 C 3.488281 24.191406 3.605469 24.269531 3.617188 24.277344 C 3.625 24.28125 3.5625 24.417969 3.488281 24.578125 C 3.023438 25.523438 3.679688 26.269531 5.582031 26.945312 C 6.390625 27.234375 7.835938 27.574219 9.625 27.894531 C 10.90625 28.125 12.140625 28.457031 13.394531 28.90625 C 13.746094 29.03125 14.390625 29.265625 14.839844 29.425781 C 16.28125 29.945312 16.824219 30.167969 17.605469 30.570312 C 18.027344 30.789062 18.492188 31.015625 18.648438 31.078125 C 18.96875 31.203125 19.796875 31.429688 20.15625 31.488281 C 20.296875 31.511719 20.613281 31.578125 20.859375 31.636719 C 21.609375 31.816406 22.097656 31.777344 23.242188 31.441406 C 24.121094 31.183594 24.632812 30.941406 25.425781 30.421875 C 26.175781 29.921875 27.667969 28.871094 28.390625 28.324219 C 28.96875 27.890625 30.066406 27.164062 31.03125 26.578125 C 32.804688 25.5 33.554688 24.972656 34.085938 24.40625 C 34.609375 23.859375 34.859375 23.390625 34.859375 22.96875 C 34.859375 22.738281 34.75 22.328125 34.628906 22.085938 Z M 32.082031 19.074219 C 32.105469 18.949219 32.117188 18.9375 32.324219 18.914062 C 32.445312 18.902344 32.824219 18.871094 33.160156 18.855469 C 33.5 18.835938 33.800781 18.816406 33.832031 18.816406 C 33.941406 18.804688 33.402344 19.546875 32.996094 19.972656 C 32.710938 20.269531 32.175781 20.714844 31.332031 21.34375 C 30.710938 21.808594 30.277344 22.210938 29.742188 22.824219 C 29.460938 23.144531 29.042969 23.523438 28.1875 24.242188 C 27.714844 24.636719 27.511719 24.777344 26.628906 25.324219 C 25.773438 25.851562 25.644531 25.933594 25.417969 26.054688 C 25.3125 26.113281 24.71875 26.457031 24.097656 26.816406 C 22.539062 27.71875 22.445312 27.820312 22.308594 28.683594 C 22.253906 29.003906 22.226562 29.046875 22.027344 29.113281 C 21.855469 29.171875 21.605469 29.152344 21.179688 29.054688 C 21.011719 29.015625 20.570312 28.964844 20.1875 28.941406 C 18.914062 28.855469 17.605469 28.433594 15.6875 27.492188 C 15.035156 27.171875 14.3125 26.847656 14.089844 26.773438 C 13.722656 26.65625 13.671875 26.625 13.585938 26.480469 C 12.875 25.308594 12.605469 24.761719 12.605469 24.519531 C 12.605469 24.371094 12.710938 24.003906 12.78125 23.902344 C 12.832031 23.828125 12.867188 23.832031 13.433594 23.957031 C 14.585938 24.210938 15.867188 24.558594 16.796875 24.851562 C 17.308594 25.015625 18.113281 25.246094 18.582031 25.363281 C 19.050781 25.476562 19.730469 25.664062 20.09375 25.777344 C 21.027344 26.078125 21.191406 26.101562 21.699219 26.042969 C 22.414062 25.957031 22.535156 25.917969 25.117188 24.96875 C 25.859375 24.691406 26.277344 24.449219 26.738281 24.015625 C 27.375 23.417969 28.320312 22.710938 29.351562 22.058594 C 30.117188 21.574219 30.558594 21.226562 31.09375 20.679688 C 31.6875 20.085938 31.996094 19.574219 32.082031 19.074219 Z M 12.667969 25.804688 C 12.84375 26.105469 12.980469 26.355469 12.972656 26.363281 C 12.96875 26.367188 12.695312 26.296875 12.371094 26.207031 C 11.921875 26.085938 11.757812 26.019531 11.695312 25.945312 C 11.453125 25.640625 11.214844 25.285156 11.089844 25.039062 C 10.835938 24.5625 10.90625 24.132812 11.285156 23.761719 C 11.378906 23.671875 11.453125 23.570312 11.453125 23.535156 C 11.453125 23.492188 11.484375 23.484375 11.546875 23.5 C 11.597656 23.515625 11.804688 23.570312 12 23.621094 C 12.292969 23.699219 12.347656 23.722656 12.324219 23.777344 C 12.304688 23.816406 12.253906 23.984375 12.210938 24.144531 C 12.074219 24.640625 12.15625 24.929688 12.667969 25.804688 Z M 29.308594 14.105469 C 29.515625 14.070312 29.738281 14.03125 29.796875 14.019531 C 30.023438 13.980469 30.542969 14.023438 30.683594 14.097656 C 30.792969 14.15625 30.816406 14.195312 30.816406 14.304688 C 30.816406 14.546875 30.597656 14.929688 30.238281 15.308594 C 29.910156 15.660156 28.8125 16.652344 28.289062 17.074219 C 28.148438 17.191406 27.859375 17.441406 27.648438 17.628906 C 26.664062 18.515625 25.941406 19.046875 23.984375 20.3125 C 23.550781 20.59375 22.980469 20.972656 22.71875 21.15625 C 21.421875 22.0625 20.851562 22.421875 20.5625 22.511719 C 20.398438 22.558594 20.25 22.585938 20.226562 22.570312 C 20.121094 22.5 20.042969 22.277344 20.066406 22.074219 C 20.136719 21.503906 20.710938 20.804688 21.535156 20.289062 C 22.761719 19.523438 22.960938 19.375 23.441406 18.878906 C 23.851562 18.453125 24.457031 17.6875 25.535156 16.21875 C 25.957031 15.644531 26.5625 15.195312 27.675781 14.621094 C 28.304688 14.296875 28.433594 14.253906 29.308594 14.105469 Z M 17.796875 7.652344 C 17.855469 7.652344 18.78125 7.988281 19.730469 8.355469 C 21.179688 8.917969 22.570312 9.421875 23.242188 9.640625 C 23.816406 9.828125 25.464844 10.304688 25.878906 10.40625 C 26.011719 10.441406 25.976562 10.460938 25.035156 10.878906 C 23.375 11.617188 22.035156 12.023438 21.136719 12.0625 C 19.695312 12.125 18.074219 11.578125 17.21875 10.734375 C 16.839844 10.359375 16.6875 10.074219 16.6875 9.71875 C 16.6875 9.296875 16.945312 8.734375 17.429688 8.078125 C 17.609375 7.847656 17.769531 7.652344 17.796875 7.652344 Z M 4.082031 17.035156 C 4.167969 16.355469 4.390625 15.664062 4.691406 15.15625 C 4.769531 15.023438 5.082031 14.65625 5.386719 14.34375 C 5.929688 13.777344 5.941406 13.769531 6.449219 13.523438 C 6.730469 13.386719 7.21875 13.175781 7.53125 13.058594 C 8.660156 12.632812 9.582031 12.207031 10.089844 11.875 C 11.230469 11.128906 11.660156 10.703125 12.84375 9.128906 C 13.296875 8.519531 13.816406 7.875 13.992188 7.691406 C 14.164062 7.507812 14.328125 7.355469 14.347656 7.355469 C 14.371094 7.355469 14.660156 7.394531 14.992188 7.441406 C 15.324219 7.488281 15.929688 7.5625 16.339844 7.609375 C 16.75 7.65625 17.089844 7.703125 17.097656 7.710938 C 17.105469 7.722656 17.023438 7.84375 16.917969 7.988281 C 16.328125 8.792969 16.105469 9.546875 16.289062 10.148438 C 16.5 10.847656 17.0625 11.394531 18.054688 11.867188 C 19.390625 12.503906 20.820312 12.691406 22.09375 12.398438 C 23.117188 12.160156 24.296875 11.722656 26 10.945312 C 26.308594 10.808594 26.480469 10.753906 26.714844 10.734375 L 27.027344 10.703125 L 27.566406 10.964844 C 27.863281 11.105469 28.300781 11.3125 28.53125 11.417969 C 28.765625 11.527344 29.097656 11.703125 29.265625 11.808594 C 29.519531 11.964844 29.570312 12.019531 29.570312 12.109375 C 29.570312 12.257812 29.324219 12.691406 28.992188 13.144531 C 28.75 13.472656 28.675781 13.535156 28.367188 13.703125 C 28.175781 13.8125 27.972656 13.914062 27.910156 13.929688 C 27.851562 13.949219 27.765625 13.996094 27.71875 14.035156 C 27.671875 14.078125 27.425781 14.222656 27.167969 14.359375 C 26.160156 14.894531 25.542969 15.394531 25.046875 16.082031 C 24.304688 17.117188 23.460938 18.191406 23.101562 18.570312 C 22.695312 18.996094 22.457031 19.167969 21.265625 19.914062 C 20.65625 20.296875 20.019531 20.925781 19.808594 21.371094 C 19.722656 21.542969 19.632812 21.820312 19.605469 21.992188 C 19.558594 22.253906 19.5625 22.320312 19.621094 22.472656 L 19.691406 22.652344 L 19.554688 22.621094 C 19.476562 22.605469 19.25 22.546875 19.050781 22.488281 C 18.851562 22.433594 18.300781 22.292969 17.839844 22.179688 C 17.03125 21.976562 16.554688 21.878906 14.5 21.488281 C 11.796875 20.972656 10.371094 20.578125 8.265625 19.753906 C 7.726562 19.539062 6.914062 19.242188 6.457031 19.085938 C 5.328125 18.695312 4.738281 18.40625 4.394531 18.070312 C 4.066406 17.730469 4.019531 17.582031 4.082031 17.035156 Z M 3.722656 18.9375 L 4.144531 18.472656 L 4.339844 18.625 C 4.644531 18.859375 5.390625 19.195312 6.300781 19.507812 C 6.757812 19.667969 7.570312 19.964844 8.109375 20.179688 C 10.386719 21.070312 12.203125 21.558594 15.417969 22.128906 C 16.382812 22.296875 17.355469 22.515625 18.476562 22.808594 C 19.097656 22.96875 19.699219 23.105469 19.804688 23.105469 C 20.066406 23.105469 20.570312 23.003906 20.871094 22.894531 C 21.105469 22.804688 21.835938 22.339844 23.054688 21.488281 C 23.339844 21.289062 23.902344 20.917969 24.300781 20.660156 C 26.03125 19.542969 26.925781 18.894531 27.851562 18.070312 C 28.21875 17.746094 28.566406 17.441406 28.636719 17.390625 C 28.859375 17.214844 29.816406 16.367188 30.125 16.066406 C 30.421875 15.777344 30.433594 15.769531 30.636719 15.777344 C 30.746094 15.78125 30.90625 15.769531 30.988281 15.746094 C 31.070312 15.726562 31.253906 15.714844 31.394531 15.71875 C 31.617188 15.722656 31.652344 15.734375 31.699219 15.832031 C 31.792969 16.027344 31.691406 16.328125 31.179688 17.359375 C 30.613281 18.507812 30.261719 19.0625 29.851562 19.453125 C 29.398438 19.894531 29.0625 20.101562 27.855469 20.710938 C 26.230469 21.53125 25.464844 22 24.609375 22.703125 C 24.433594 22.84375 23.882812 23.277344 23.375 23.664062 C 22.546875 24.300781 22.457031 24.382812 22.441406 24.507812 C 22.414062 24.800781 22.683594 24.867188 22.914062 24.625 C 22.992188 24.546875 23.335938 24.269531 23.691406 24 C 24.039062 23.734375 24.519531 23.359375 24.753906 23.167969 C 25.726562 22.378906 26.414062 21.953125 28.085938 21.105469 C 29.277344 20.5 29.769531 20.1875 30.21875 19.738281 C 30.519531 19.4375 30.980469 18.78125 31.203125 18.328125 C 31.277344 18.167969 31.363281 18.039062 31.386719 18.039062 C 31.445312 18.039062 31.617188 18.460938 31.652344 18.679688 C 31.683594 18.878906 31.574219 19.257812 31.378906 19.613281 C 31.269531 19.8125 31.074219 20.042969 30.667969 20.441406 C 30.109375 21 29.980469 21.101562 29.238281 21.578125 C 27.8125 22.5 27.132812 23.011719 26.449219 23.660156 C 26 24.085938 25.640625 24.289062 24.75 24.609375 C 24.441406 24.71875 23.808594 24.949219 23.339844 25.125 C 22.328125 25.492188 21.960938 25.578125 21.386719 25.582031 C 20.980469 25.585938 20.929688 25.574219 20.21875 25.339844 C 19.808594 25.203125 19.15625 25.019531 18.769531 24.929688 C 18.089844 24.773438 17.34375 24.558594 16.28125 24.207031 C 15.746094 24.035156 14.460938 23.710938 12.980469 23.382812 C 12.007812 23.164062 11.683594 23.074219 10.707031 22.734375 C 10.332031 22.609375 9.65625 22.394531 9.203125 22.273438 C 8.753906 22.144531 8.054688 21.925781 7.648438 21.789062 C 4.777344 20.804688 4.679688 20.769531 4.15625 20.472656 C 3.773438 20.257812 3.503906 20.039062 3.363281 19.828125 C 3.175781 19.546875 3.175781 19.550781 3.722656 18.9375 Z M 2.972656 23.160156 C 2.65625 22.703125 2.699219 22.359375 3.207031 21.285156 C 3.378906 20.925781 3.523438 20.636719 3.527344 20.636719 C 3.53125 20.636719 3.589844 20.671875 3.652344 20.714844 C 4.078125 21.007812 4.527344 21.199219 5.769531 21.625 C 6.304688 21.8125 7.070312 22.074219 7.472656 22.210938 C 7.867188 22.347656 8.480469 22.539062 8.832031 22.636719 C 9.183594 22.734375 9.820312 22.929688 10.246094 23.070312 L 11.019531 23.332031 L 10.816406 23.597656 C 10.335938 24.226562 10.363281 24.859375 10.917969 25.675781 C 10.976562 25.765625 11.027344 25.84375 11.027344 25.851562 C 11.027344 25.878906 10.402344 25.6875 9.753906 25.460938 C 9.390625 25.332031 8.914062 25.167969 8.695312 25.105469 C 8.28125 24.976562 7.089844 24.730469 6.347656 24.621094 C 5.820312 24.539062 5.070312 24.375 4.6875 24.25 C 4.050781 24.042969 3.21875 23.515625 2.972656 23.160156 Z M 22.902344 30.589844 C 22.078125 30.996094 21.773438 31.074219 21.007812 31.066406 C 19.910156 31.0625 19.273438 30.882812 17.746094 30.128906 C 16.8125 29.667969 16.410156 29.496094 15.328125 29.109375 C 14.613281 28.855469 13.761719 28.550781 13.433594 28.429688 C 12.261719 28.007812 10.957031 27.664062 9.703125 27.441406 C 9.296875 27.371094 8.753906 27.265625 8.496094 27.207031 C 8.238281 27.152344 7.707031 27.039062 7.308594 26.953125 C 5.996094 26.671875 4.742188 26.195312 4.210938 25.769531 C 3.996094 25.59375 3.796875 25.292969 3.796875 25.128906 C 3.796875 24.996094 3.910156 24.71875 4.015625 24.582031 C 4.070312 24.515625 4.09375 24.515625 4.359375 24.613281 C 4.8125 24.777344 5.4375 24.921875 6.382812 25.085938 C 8 25.363281 8.402344 25.460938 9.582031 25.878906 C 10.253906 26.117188 10.59375 26.222656 11.945312 26.574219 C 13.273438 26.921875 14.273438 27.296875 15.519531 27.914062 C 16.625 28.464844 17.179688 28.6875 18.183594 29.011719 C 18.960938 29.265625 19.429688 29.347656 20.230469 29.40625 C 20.636719 29.429688 21.046875 29.480469 21.1875 29.523438 C 21.34375 29.570312 21.582031 29.597656 21.839844 29.597656 C 22.234375 29.597656 22.246094 29.589844 22.421875 29.449219 C 22.625 29.289062 22.683594 29.144531 22.796875 28.582031 C 22.878906 28.175781 22.941406 28.0625 23.214844 27.875 C 23.417969 27.734375 24.601562 27.039062 25.351562 26.617188 C 25.628906 26.460938 25.945312 26.277344 26.050781 26.210938 C 26.160156 26.148438 26.527344 25.914062 26.882812 25.703125 C 27.75 25.164062 27.96875 25.015625 28.417969 24.640625 C 29.285156 23.917969 29.683594 23.558594 30.121094 23.082031 C 30.792969 22.347656 30.9375 22.214844 31.644531 21.679688 C 31.996094 21.417969 32.398438 21.101562 32.539062 20.980469 C 32.679688 20.867188 32.804688 20.769531 32.824219 20.769531 C 32.859375 20.765625 32.824219 20.980469 32.742188 21.207031 C 32.710938 21.296875 32.554688 21.585938 32.394531 21.847656 C 32.230469 22.105469 31.941406 22.589844 31.746094 22.917969 C 31.453125 23.414062 31.3125 23.597656 30.921875 24 C 30.171875 24.773438 30.046875 24.882812 29.640625 25.160156 C 29.429688 25.304688 29.082031 25.546875 28.875 25.703125 C 28.664062 25.855469 28.269531 26.136719 28 26.320312 C 27.457031 26.695312 26.308594 27.789062 25.375 28.816406 C 24.671875 29.597656 24.121094 29.996094 22.902344 30.589844 Z M 34.292969 23.375 C 34.144531 23.667969 33.703125 24.1875 33.335938 24.492188 C 32.972656 24.796875 31.839844 25.546875 30.777344 26.191406 C 29.808594 26.773438 28.710938 27.503906 28.136719 27.9375 C 26.773438 28.960938 24.664062 30.40625 24.265625 30.582031 C 24.023438 30.691406 23.339844 30.9375 23.292969 30.9375 C 23.277344 30.9375 23.441406 30.839844 23.664062 30.722656 C 24.46875 30.296875 25.128906 29.800781 25.570312 29.296875 C 25.753906 29.089844 26.328125 28.492188 26.84375 27.980469 C 27.835938 26.988281 27.898438 26.9375 29.8125 25.621094 C 30.234375 25.332031 30.472656 25.125 31.039062 24.542969 L 31.742188 23.824219 L 32.371094 22.796875 C 32.714844 22.230469 33.042969 21.683594 33.089844 21.585938 C 33.140625 21.488281 33.1875 21.40625 33.203125 21.40625 C 33.242188 21.40625 33.929688 21.925781 34.046875 22.054688 C 34.234375 22.25 34.367188 22.566406 34.394531 22.882812 C 34.402344 23.105469 34.390625 23.179688 34.292969 23.375 Z M 34.292969 23.375 "/></g><path style=" stroke:none;fill-rule:nonzero;fill:#346bbd;fill-opacity:1;" d="M 19.445312 11.292969 C 20.191406 11.503906 20.472656 11.539062 21.429688 11.542969 C 22.214844 11.546875 22.320312 11.539062 22.769531 11.433594 C 23.039062 11.367188 23.4375 11.277344 23.65625 11.230469 C 24 11.15625 24.097656 11.113281 24.390625 10.90625 C 24.691406 10.695312 24.898438 10.484375 24.851562 10.445312 C 24.664062 10.296875 23.917969 10.050781 23.007812 9.839844 C 21.527344 9.5 20.726562 9.273438 20.027344 8.992188 C 19.746094 8.882812 19.332031 8.726562 19.101562 8.648438 C 18.875 8.566406 18.515625 8.425781 18.296875 8.335938 C 17.851562 8.140625 17.792969 8.128906 17.6875 8.242188 C 17.542969 8.398438 17.390625 8.851562 17.394531 9.121094 C 17.394531 9.402344 17.53125 9.945312 17.660156 10.203125 C 17.886719 10.632812 18.542969 11.035156 19.445312 11.292969 Z M 17.925781 8.792969 C 17.949219 8.75 17.980469 8.71875 17.996094 8.71875 C 18.011719 8.71875 18.234375 8.800781 18.492188 8.90625 C 20.238281 9.597656 20.628906 9.726562 22.386719 10.160156 C 23.238281 10.371094 23.957031 10.5625 23.980469 10.585938 C 24.042969 10.648438 23.808594 10.742188 23.390625 10.824219 C 23.183594 10.867188 22.8125 10.941406 22.574219 11 C 21.261719 11.304688 19.09375 10.933594 18.320312 10.269531 C 18.089844 10.074219 18.035156 9.960938 17.921875 9.503906 C 17.832031 9.148438 17.839844 8.96875 17.925781 8.792969 Z M 17.925781 8.792969 "/><path style=" stroke:none;fill-rule:nonzero;fill:#346bbd;fill-opacity:1;" d="M 13.921875 24.632812 C 13.738281 24.632812 13.691406 24.652344 13.5625 24.78125 C 13.433594 24.910156 13.414062 24.960938 13.414062 25.125 C 13.414062 25.433594 13.621094 25.652344 13.921875 25.652344 C 14.226562 25.652344 14.433594 25.425781 14.433594 25.101562 C 14.433594 24.960938 14.402344 24.902344 14.285156 24.777344 C 14.152344 24.65625 14.105469 24.632812 13.921875 24.632812 Z M 13.921875 24.632812 "/></g></svg>