<svg xmlns="http://www.w3.org/2000/svg" xmlns:xlink="http://www.w3.org/1999/xlink" width="51" zoomAndPan="magnify" viewBox="0 0 38.25 38.249999" height="51" preserveAspectRatio="xMidYMid meet" version="1.2"><defs><clipPath id="50314842c7"><path d="M 5.355469 23 L 31.835938 23 L 31.835938 35 L 5.355469 35 Z M 5.355469 23 "/></clipPath><clipPath id="2e061d5138"><path d="M 11 2.683594 L 31.835938 2.683594 L 31.835938 25 L 11 25 Z M 11 2.683594 "/></clipPath></defs><g id="59c96e0a5a"><g clip-rule="nonzero" clip-path="url(#50314842c7)"><path style=" stroke:none;fill-rule:nonzero;fill:#346bbd;fill-opacity:1;" d="M 30.023438 23.125 C 29.453125 22.992188 28.925781 23.089844 28.441406 23.414062 L 23.585938 26.679688 C 23.503906 26.269531 23.300781 25.929688 22.976562 25.667969 C 22.652344 25.402344 22.28125 25.269531 21.863281 25.265625 L 19.863281 25.265625 C 18.828125 25.269531 17.863281 25.011719 16.96875 24.492188 C 16.550781 24.25 16.105469 24.082031 15.632812 23.980469 C 15.15625 23.878906 14.679688 23.851562 14.199219 23.898438 C 13.71875 23.949219 13.257812 24.066406 12.8125 24.261719 C 12.367188 24.453125 11.964844 24.710938 11.601562 25.03125 L 11.28125 25.308594 C 11.203125 24.957031 11.027344 24.671875 10.746094 24.445312 C 10.46875 24.222656 10.148438 24.109375 9.789062 24.109375 L 7.003906 24.109375 C 6.800781 24.109375 6.609375 24.148438 6.421875 24.222656 C 6.234375 24.300781 6.070312 24.410156 5.925781 24.554688 C 5.785156 24.695312 5.675781 24.863281 5.597656 25.046875 C 5.519531 25.234375 5.480469 25.429688 5.480469 25.628906 L 5.480469 32.921875 C 5.480469 33.121094 5.519531 33.316406 5.597656 33.503906 C 5.671875 33.691406 5.78125 33.855469 5.925781 34 C 6.070312 34.144531 6.234375 34.253906 6.421875 34.332031 C 6.605469 34.410156 6.800781 34.449219 7.003906 34.449219 L 9.789062 34.449219 C 9.992188 34.449219 10.1875 34.410156 10.375 34.332031 C 10.558594 34.253906 10.726562 34.144531 10.867188 34 C 11.011719 33.855469 11.121094 33.691406 11.199219 33.503906 C 11.273438 33.316406 11.3125 33.121094 11.3125 32.921875 L 11.3125 32.65625 L 14.003906 33.1875 C 15.011719 33.386719 16.027344 33.484375 17.054688 33.484375 C 18.621094 33.484375 20.152344 33.257812 21.652344 32.804688 C 23.78125 32.164062 25.683594 31.117188 27.367188 29.664062 L 30.890625 26.632812 C 31.183594 26.382812 31.386719 26.074219 31.5 25.710938 C 31.617188 25.347656 31.628906 24.980469 31.539062 24.609375 C 31.445312 24.238281 31.265625 23.917969 30.992188 23.652344 C 30.71875 23.382812 30.394531 23.207031 30.023438 23.125 Z M 30.207031 25.835938 L 26.679688 28.871094 C 25.832031 29.597656 24.914062 30.222656 23.921875 30.742188 C 22.933594 31.261719 21.898438 31.664062 20.820312 31.949219 C 19.738281 32.234375 18.640625 32.394531 17.523438 32.429688 C 16.40625 32.464844 15.300781 32.371094 14.203125 32.15625 L 11.3125 31.582031 L 11.3125 26.683594 L 12.296875 25.820312 C 12.582031 25.578125 12.894531 25.382812 13.234375 25.238281 C 13.578125 25.09375 13.933594 25 14.304688 24.964844 C 14.675781 24.929688 15.042969 24.949219 15.410156 25.023438 C 15.773438 25.097656 16.117188 25.226562 16.441406 25.410156 C 17.5 26.015625 18.640625 26.320312 19.863281 26.320312 L 21.863281 26.320312 C 22.058594 26.320312 22.222656 26.390625 22.363281 26.527344 C 22.5 26.664062 22.570312 26.832031 22.570312 27.027344 C 22.570312 27.222656 22.5 27.386719 22.363281 27.527344 C 22.222656 27.664062 22.058594 27.730469 21.863281 27.730469 L 16.945312 27.730469 C 16.796875 27.730469 16.671875 27.785156 16.570312 27.886719 C 16.46875 27.988281 16.417969 28.113281 16.417969 28.257812 C 16.417969 28.40625 16.46875 28.527344 16.570312 28.632812 C 16.671875 28.734375 16.796875 28.785156 16.945312 28.785156 L 21.863281 28.785156 C 22.339844 28.785156 22.75 28.617188 23.089844 28.28125 L 29.027344 24.289062 C 29.261719 24.132812 29.515625 24.085938 29.789062 24.148438 C 30.0625 24.210938 30.273438 24.363281 30.414062 24.601562 C 30.53125 24.804688 30.570312 25.023438 30.53125 25.257812 C 30.492188 25.488281 30.386719 25.683594 30.207031 25.835938 Z M 30.207031 25.835938 "/></g><path style=" stroke:none;fill-rule:nonzero;fill:#346bbd;fill-opacity:1;" d="M 19.730469 13.140625 L 20.898438 13.140625 C 21.152344 13.140625 21.371094 13.230469 21.554688 13.414062 C 21.734375 13.59375 21.824219 13.8125 21.824219 14.066406 C 21.824219 14.210938 21.875 14.335938 21.980469 14.441406 C 22.082031 14.542969 22.207031 14.59375 22.351562 14.59375 C 22.496094 14.59375 22.621094 14.542969 22.722656 14.441406 C 22.828125 14.335938 22.878906 14.210938 22.878906 14.066406 C 22.878906 13.804688 22.828125 13.550781 22.726562 13.308594 C 22.625 13.066406 22.484375 12.855469 22.296875 12.667969 C 22.113281 12.484375 21.898438 12.339844 21.65625 12.238281 C 21.414062 12.136719 21.160156 12.085938 20.898438 12.085938 L 20.84375 12.085938 L 20.84375 11.429688 C 20.84375 11.285156 20.792969 11.160156 20.6875 11.058594 C 20.585938 10.953125 20.460938 10.902344 20.316406 10.902344 C 20.171875 10.902344 20.046875 10.953125 19.941406 11.058594 C 19.839844 11.160156 19.789062 11.285156 19.789062 11.429688 L 19.789062 12.085938 L 19.730469 12.085938 C 19.46875 12.085938 19.214844 12.136719 18.972656 12.238281 C 18.730469 12.339844 18.515625 12.480469 18.332031 12.667969 C 18.144531 12.851562 18 13.066406 17.902344 13.308594 C 17.800781 13.550781 17.75 13.804688 17.75 14.066406 C 17.75 14.328125 17.800781 14.582031 17.902344 14.824219 C 18 15.066406 18.144531 15.28125 18.332031 15.46875 C 18.515625 15.652344 18.730469 15.796875 18.972656 15.894531 C 19.214844 15.996094 19.46875 16.046875 19.730469 16.046875 L 20.898438 16.046875 C 21.148438 16.050781 21.363281 16.144531 21.539062 16.324219 C 21.714844 16.503906 21.804688 16.722656 21.804688 16.972656 C 21.804688 17.222656 21.714844 17.441406 21.539062 17.621094 C 21.363281 17.800781 21.148438 17.894531 20.898438 17.898438 L 20.328125 17.898438 C 20.324219 17.898438 20.320312 17.894531 20.3125 17.894531 C 20.308594 17.894531 20.304688 17.894531 20.296875 17.898438 L 19.730469 17.898438 C 19.472656 17.898438 19.257812 17.808594 19.074219 17.628906 C 18.894531 17.445312 18.804688 17.230469 18.804688 16.972656 C 18.804688 16.828125 18.753906 16.703125 18.648438 16.601562 C 18.546875 16.496094 18.421875 16.445312 18.277344 16.445312 C 18.132812 16.445312 18.007812 16.496094 17.90625 16.601562 C 17.800781 16.703125 17.75 16.828125 17.75 16.972656 C 17.75 17.234375 17.800781 17.488281 17.902344 17.730469 C 18.003906 17.972656 18.144531 18.1875 18.332031 18.371094 C 18.515625 18.558594 18.730469 18.699219 18.972656 18.800781 C 19.214844 18.902344 19.46875 18.953125 19.730469 18.953125 L 19.789062 18.953125 L 19.789062 19.609375 C 19.789062 19.757812 19.839844 19.878906 19.941406 19.984375 C 20.046875 20.085938 20.167969 20.136719 20.316406 20.136719 C 20.460938 20.136719 20.585938 20.085938 20.6875 19.984375 C 20.789062 19.878906 20.84375 19.757812 20.84375 19.609375 L 20.84375 18.953125 L 20.898438 18.953125 C 21.15625 18.949219 21.40625 18.894531 21.644531 18.792969 C 21.882812 18.691406 22.09375 18.546875 22.277344 18.363281 C 22.460938 18.175781 22.597656 17.964844 22.699219 17.722656 C 22.796875 17.484375 22.84375 17.234375 22.84375 16.972656 C 22.84375 16.714844 22.796875 16.464844 22.699219 16.222656 C 22.597656 15.980469 22.460938 15.769531 22.277344 15.585938 C 22.09375 15.398438 21.882812 15.253906 21.644531 15.152344 C 21.40625 15.050781 21.15625 14.996094 20.898438 14.992188 L 19.730469 14.992188 C 19.472656 14.992188 19.257812 14.902344 19.074219 14.722656 C 18.894531 14.542969 18.804688 14.324219 18.804688 14.066406 C 18.804688 13.8125 18.894531 13.59375 19.074219 13.414062 C 19.257812 13.230469 19.472656 13.140625 19.730469 13.140625 Z M 19.730469 13.140625 "/><g clip-rule="nonzero" clip-path="url(#2e061d5138)"><path style=" stroke:none;fill-rule:nonzero;fill:#346bbd;fill-opacity:1;" d="M 30.796875 8.351562 L 30.796875 5.941406 C 30.796875 5.53125 30.71875 5.136719 30.5625 4.757812 C 30.40625 4.378906 30.183594 4.042969 29.890625 3.753906 C 29.601562 3.460938 29.269531 3.238281 28.890625 3.082031 C 28.511719 2.925781 28.113281 2.847656 27.703125 2.847656 C 27.292969 2.847656 26.898438 2.925781 26.519531 3.082031 C 26.140625 3.238281 25.808594 3.460938 25.519531 3.753906 C 25.226562 4.042969 25.003906 4.378906 24.847656 4.757812 C 24.691406 5.136719 24.613281 5.53125 24.613281 5.941406 L 24.613281 7.808594 C 24.050781 7.496094 23.464844 7.25 22.847656 7.0625 C 22.230469 6.878906 21.601562 6.765625 20.960938 6.71875 C 20.320312 6.671875 19.683594 6.691406 19.046875 6.785156 C 18.410156 6.878906 17.792969 7.039062 17.191406 7.265625 C 16.589844 7.492188 16.019531 7.78125 15.480469 8.132812 C 14.945312 8.484375 14.449219 8.890625 14 9.351562 C 13.550781 9.8125 13.15625 10.3125 12.816406 10.859375 C 12.476562 11.40625 12.203125 11.980469 11.988281 12.585938 C 11.773438 13.195312 11.628906 13.816406 11.550781 14.453125 C 11.472656 15.09375 11.464844 15.730469 11.527344 16.371094 C 11.589844 17.011719 11.71875 17.636719 11.917969 18.246094 C 12.117188 18.859375 12.378906 19.441406 12.703125 19.996094 C 13.03125 20.550781 13.410156 21.0625 13.847656 21.53125 C 14.285156 22.003906 14.769531 22.421875 15.296875 22.785156 C 15.828125 23.152344 16.390625 23.457031 16.984375 23.699219 C 17.582031 23.941406 18.195312 24.117188 18.828125 24.222656 C 19.460938 24.332031 20.101562 24.371094 20.742188 24.339844 C 21.382812 24.308594 22.015625 24.207031 22.636719 24.039062 C 23.253906 23.871094 23.851562 23.636719 24.417969 23.339844 C 24.988281 23.039062 25.519531 22.683594 26.007812 22.269531 C 26.5 21.851562 26.941406 21.390625 27.332031 20.878906 C 27.722656 20.367188 28.050781 19.820312 28.324219 19.238281 C 28.59375 18.65625 28.796875 18.050781 28.9375 17.421875 C 29.074219 16.792969 29.144531 16.160156 29.144531 15.515625 C 29.144531 15.472656 29.140625 15.433594 29.136719 15.390625 L 30.476562 15.390625 C 30.648438 15.390625 30.8125 15.355469 30.96875 15.289062 C 31.128906 15.226562 31.269531 15.132812 31.390625 15.007812 C 31.511719 14.886719 31.601562 14.75 31.667969 14.589844 C 31.734375 14.429688 31.765625 14.265625 31.765625 14.09375 L 31.765625 9.601562 C 31.765625 9.308594 31.675781 9.042969 31.496094 8.8125 C 31.316406 8.578125 31.082031 8.425781 30.796875 8.351562 Z M 25.667969 5.941406 C 25.667969 5.671875 25.71875 5.410156 25.820312 5.160156 C 25.925781 4.910156 26.074219 4.691406 26.261719 4.5 C 26.453125 4.308594 26.675781 4.160156 26.925781 4.058594 C 27.175781 3.953125 27.433594 3.902344 27.703125 3.902344 C 27.976562 3.902344 28.234375 3.953125 28.484375 4.058594 C 28.734375 4.160156 28.957031 4.308594 29.144531 4.5 C 29.335938 4.691406 29.484375 4.910156 29.589844 5.160156 C 29.691406 5.410156 29.742188 5.671875 29.742188 5.941406 L 29.742188 8.304688 L 29.332031 8.304688 L 29.332031 6.097656 C 29.328125 5.648438 29.171875 5.265625 28.859375 4.945312 C 28.625 4.710938 28.347656 4.5625 28.023438 4.5 C 27.699219 4.433594 27.386719 4.464844 27.082031 4.589844 C 26.777344 4.71875 26.53125 4.917969 26.347656 5.191406 C 26.164062 5.464844 26.074219 5.769531 26.070312 6.097656 L 26.070312 8.304688 L 25.667969 8.304688 Z M 28.277344 6.097656 L 28.277344 8.304688 L 27.125 8.304688 L 27.125 6.097656 C 27.128906 5.9375 27.183594 5.804688 27.296875 5.691406 C 27.410156 5.582031 27.546875 5.523438 27.703125 5.523438 C 27.863281 5.523438 27.996094 5.578125 28.105469 5.6875 C 28.21875 5.800781 28.277344 5.9375 28.277344 6.097656 Z M 24.933594 15.390625 L 25.835938 15.390625 C 25.835938 15.433594 25.839844 15.476562 25.839844 15.515625 C 25.84375 15.933594 25.800781 16.34375 25.707031 16.75 C 25.617188 17.15625 25.484375 17.546875 25.308594 17.921875 C 25.128906 18.300781 24.914062 18.652344 24.65625 18.976562 C 24.398438 19.304688 24.109375 19.601562 23.785156 19.863281 C 23.464844 20.125 23.117188 20.347656 22.742188 20.53125 C 22.371094 20.714844 21.980469 20.855469 21.578125 20.953125 C 21.171875 21.050781 20.761719 21.101562 20.347656 21.105469 C 19.929688 21.109375 19.519531 21.070312 19.113281 20.980469 C 18.707031 20.894531 18.3125 20.761719 17.9375 20.585938 C 17.558594 20.410156 17.207031 20.195312 16.878906 19.941406 C 16.550781 19.683594 16.253906 19.398438 15.988281 19.074219 C 15.726562 18.753906 15.5 18.40625 15.3125 18.035156 C 15.128906 17.664062 14.984375 17.277344 14.886719 16.871094 C 14.785156 16.46875 14.734375 16.058594 14.726562 15.640625 C 14.71875 15.226562 14.757812 14.816406 14.84375 14.40625 C 14.929688 14 15.058594 13.609375 15.230469 13.230469 C 15.40625 12.851562 15.617188 12.5 15.871094 12.167969 C 16.125 11.839844 16.410156 11.539062 16.730469 11.273438 C 17.050781 11.007812 17.398438 10.78125 17.765625 10.59375 C 18.136719 10.40625 18.527344 10.261719 18.929688 10.160156 C 19.332031 10.058594 19.742188 10 20.15625 9.992188 C 20.574219 9.984375 20.984375 10.019531 21.394531 10.101562 C 21.800781 10.1875 22.195312 10.3125 22.574219 10.484375 C 22.953125 10.65625 23.308594 10.867188 23.636719 11.117188 L 23.636719 14.09375 C 23.636719 14.265625 23.671875 14.433594 23.738281 14.589844 C 23.800781 14.75 23.894531 14.890625 24.019531 15.011719 C 24.140625 15.132812 24.28125 15.226562 24.4375 15.292969 C 24.597656 15.359375 24.761719 15.390625 24.933594 15.390625 Z M 20.316406 23.296875 C 20.019531 23.296875 19.726562 23.28125 19.433594 23.246094 C 19.136719 23.214844 18.847656 23.164062 18.558594 23.097656 C 18.273438 23.03125 17.988281 22.949219 17.710938 22.851562 C 17.433594 22.753906 17.160156 22.640625 16.894531 22.507812 C 16.628906 22.378906 16.375 22.234375 16.125 22.078125 C 15.875 21.917969 15.636719 21.746094 15.40625 21.558594 C 15.175781 21.375 14.960938 21.175781 14.753906 20.964844 C 14.546875 20.753906 14.351562 20.53125 14.171875 20.300781 C 13.988281 20.066406 13.820312 19.824219 13.667969 19.570312 C 13.515625 19.320312 13.375 19.058594 13.25 18.792969 C 13.125 18.523438 13.019531 18.25 12.925781 17.96875 C 12.832031 17.691406 12.753906 17.40625 12.695312 17.117188 C 12.632812 16.828125 12.589844 16.535156 12.5625 16.242188 C 12.535156 15.949219 12.523438 15.652344 12.53125 15.359375 C 12.535156 15.0625 12.558594 14.769531 12.597656 14.476562 C 12.636719 14.183594 12.695312 13.894531 12.765625 13.609375 C 12.839844 13.324219 12.929688 13.042969 13.03125 12.765625 C 13.136719 12.488281 13.257812 12.21875 13.390625 11.957031 C 13.527344 11.695312 13.675781 11.441406 13.839844 11.195312 C 14.003906 10.949219 14.183594 10.714844 14.375 10.488281 C 14.5625 10.265625 14.765625 10.050781 14.984375 9.847656 C 15.199219 9.648438 15.425781 9.457031 15.660156 9.28125 C 15.898438 9.105469 16.144531 8.941406 16.398438 8.792969 C 16.652344 8.644531 16.917969 8.511719 17.1875 8.394531 C 17.457031 8.277344 17.734375 8.171875 18.015625 8.085938 C 18.296875 8 18.585938 7.929688 18.875 7.875 C 19.164062 7.820312 19.457031 7.78125 19.753906 7.761719 C 20.046875 7.742188 20.339844 7.738281 20.636719 7.75 C 20.929688 7.761719 21.222656 7.789062 21.515625 7.835938 C 21.808594 7.882812 22.097656 7.945312 22.378906 8.023438 C 22.664062 8.101562 22.945312 8.195312 23.21875 8.308594 C 23.492188 8.417969 23.757812 8.542969 24.019531 8.683594 C 23.765625 8.9375 23.640625 9.242188 23.636719 9.601562 L 23.636719 9.847656 C 23.222656 9.605469 22.789062 9.410156 22.328125 9.265625 C 21.871094 9.117188 21.40625 9.023438 20.925781 8.976562 C 20.449219 8.933594 19.96875 8.941406 19.492188 9.003906 C 19.015625 9.0625 18.550781 9.175781 18.101562 9.335938 C 17.648438 9.5 17.21875 9.707031 16.8125 9.964844 C 16.40625 10.222656 16.03125 10.519531 15.691406 10.859375 C 15.351562 11.195312 15.050781 11.566406 14.789062 11.972656 C 14.53125 12.375 14.316406 12.804688 14.152344 13.253906 C 13.984375 13.707031 13.871094 14.167969 13.808594 14.644531 C 13.742188 15.121094 13.730469 15.597656 13.773438 16.078125 C 13.8125 16.554688 13.902344 17.023438 14.046875 17.484375 C 14.191406 17.941406 14.382812 18.378906 14.621094 18.796875 C 14.859375 19.214844 15.140625 19.597656 15.464844 19.953125 C 15.789062 20.308594 16.148438 20.625 16.542969 20.902344 C 16.933594 21.175781 17.351562 21.40625 17.796875 21.59375 C 18.242188 21.777344 18.699219 21.910156 19.171875 21.996094 C 19.644531 22.078125 20.121094 22.109375 20.601562 22.089844 C 21.082031 22.070312 21.554688 21.996094 22.019531 21.875 C 22.480469 21.75 22.925781 21.574219 23.355469 21.355469 C 23.78125 21.132812 24.175781 20.867188 24.546875 20.558594 C 24.914062 20.25 25.242188 19.90625 25.535156 19.523438 C 25.828125 19.140625 26.078125 18.734375 26.277344 18.296875 C 26.480469 17.863281 26.636719 17.410156 26.738281 16.941406 C 26.84375 16.472656 26.894531 15.996094 26.894531 15.515625 C 26.894531 15.476562 26.886719 15.433594 26.886719 15.390625 L 28.085938 15.390625 C 28.089844 15.433594 28.089844 15.472656 28.089844 15.515625 C 28.089844 16.027344 28.039062 16.53125 27.941406 17.035156 C 27.839844 17.535156 27.691406 18.019531 27.496094 18.492188 C 27.300781 18.964844 27.0625 19.414062 26.777344 19.835938 C 26.496094 20.261719 26.171875 20.652344 25.8125 21.015625 C 25.449219 21.375 25.058594 21.699219 24.632812 21.984375 C 24.210938 22.265625 23.761719 22.507812 23.289062 22.703125 C 22.816406 22.898438 22.332031 23.046875 21.832031 23.144531 C 21.332031 23.246094 20.824219 23.296875 20.316406 23.296875 Z M 30.710938 14.09375 C 30.714844 14.253906 30.636719 14.335938 30.476562 14.335938 L 24.933594 14.335938 C 24.773438 14.335938 24.695312 14.253906 24.691406 14.09375 L 24.691406 9.601562 C 24.695312 9.441406 24.773438 9.359375 24.933594 9.359375 L 30.476562 9.359375 C 30.636719 9.363281 30.714844 9.441406 30.710938 9.601562 Z M 30.710938 14.09375 "/></g><path style=" stroke:none;fill-rule:nonzero;fill:#346bbd;fill-opacity:1;" d="M 27.703125 9.964844 C 27.453125 9.964844 27.214844 10.011719 26.984375 10.109375 C 26.753906 10.203125 26.546875 10.339844 26.371094 10.515625 C 26.195312 10.695312 26.058594 10.898438 25.960938 11.128906 C 25.867188 11.359375 25.820312 11.601562 25.820312 11.851562 C 25.820312 12.101562 25.867188 12.339844 25.960938 12.570312 C 26.058594 12.804688 26.195312 13.007812 26.371094 13.183594 C 26.546875 13.359375 26.753906 13.496094 26.984375 13.59375 C 27.214844 13.6875 27.453125 13.738281 27.703125 13.738281 C 27.953125 13.738281 28.195312 13.6875 28.425781 13.59375 C 28.65625 13.496094 28.863281 13.359375 29.039062 13.183594 C 29.214844 13.007812 29.351562 12.804688 29.445312 12.570312 C 29.542969 12.339844 29.589844 12.101562 29.589844 11.851562 C 29.589844 11.601562 29.542969 11.359375 29.445312 11.128906 C 29.351562 10.898438 29.214844 10.695312 29.039062 10.515625 C 28.859375 10.339844 28.65625 10.203125 28.425781 10.109375 C 28.195312 10.011719 27.953125 9.964844 27.703125 9.964844 Z M 27.703125 12.683594 C 27.476562 12.683594 27.277344 12.601562 27.117188 12.4375 C 26.953125 12.277344 26.871094 12.082031 26.871094 11.851562 C 26.871094 11.621094 26.953125 11.425781 27.117188 11.261719 C 27.277344 11.097656 27.476562 11.019531 27.703125 11.019531 C 27.933594 11.019531 28.132812 11.097656 28.292969 11.261719 C 28.457031 11.425781 28.539062 11.621094 28.539062 11.851562 C 28.535156 12.082031 28.457031 12.277344 28.292969 12.4375 C 28.128906 12.601562 27.933594 12.683594 27.703125 12.683594 Z M 27.703125 12.683594 "/></g></svg>